<svg width="246" height="202" viewBox="0 0 246 202" fill="none" xmlns="http://www.w3.org/2000/svg">
<g clip-path="url(#clip0_1751_64148)">
<rect x="-42.333" width="330" height="202" rx="5" fill="#0D756E"/>
<path d="M110.57 22.2695C110.57 22.2695 120.789 28.3823 133.932 24.7212C147.076 21.0602 153.227 12.1152 153.227 12.1152C153.227 12.1152 160.843 36.942 137.881 42.3193C114.919 47.6965 110.57 22.2695 110.57 22.2695Z" fill="#44A0A0"/>
<path d="M130.632 27.978L131.358 31.0293L131.695 32.4444C131.802 32.8943 132.256 33.1696 132.705 33.0564L139.725 31.2834C140.171 31.1707 140.441 30.7164 140.325 30.2711L139.115 25.7504C139.115 25.7504 138.102 26.1997 130.632 27.978Z" fill="#F1F1F2"/>
<path d="M111.146 24.8188C111.146 24.8188 119.59 30.7258 133.465 27.4233C152.164 22.9725 154.73 14.4438 154.73 14.4438" stroke="#0F8780" stroke-width="0.658721" stroke-miterlimit="10"/>
<path d="M93.1264 31.7726C93.1264 31.7726 92.2435 29.4914 94.821 28.4249C97.3985 27.3583 108.779 22.8371 108.779 22.8371C108.779 22.8371 109.918 21.4337 110.601 22.4034C111.286 23.3731 120.155 40.1736 137.457 36.7344C154.758 33.2953 153.258 12.2491 153.258 12.2491C153.258 12.2491 154.425 10.9648 155.503 11.2114C156.581 11.4581 174.705 10.9943 174.705 10.9943C174.705 10.9943 176.546 11.1219 176.741 12.8877C176.935 14.6535 197.755 97.3489 197.755 97.3489C197.755 97.3489 198.475 99.896 196.116 100.457C193.759 101.018 116.091 119.194 116.091 119.194C116.091 119.194 114.101 119.981 113.526 117.513C112.952 115.045 93.1264 31.7726 93.1264 31.7726Z" fill="#83D0D2"/>
<path d="M108.747 22.7038C108.747 22.7038 116.498 43.8886 138.356 38.6862C158.44 33.9058 155.471 11.0781 155.471 11.0781" stroke="#44A0A0" stroke-width="0.658721" stroke-miterlimit="10"/>
<path d="M160.244 99.0312C160.244 99.0312 159.291 99.9181 159.845 100.291C160.399 100.664 161.176 100.013 161.363 99.6574C161.55 99.3026 160.244 99.0312 160.244 99.0312Z" fill="#404040"/>
<path d="M186.652 92.2258C186.652 92.2258 188.725 92.78 188.038 93.6424C187.35 94.5047 185.947 93.0146 185.947 93.0146L186.652 92.2258Z" fill="#404040"/>
<path d="M154.441 93.1568L155.001 92.0067C155.001 92.0067 155.183 91.6527 156.04 91.4876C156.896 91.3225 176.999 86.7311 176.999 86.7311C176.999 86.7311 179.986 86.5635 181.159 87.3327L173.923 89.7923L154.836 93.5957L154.441 93.1568Z" fill="#404040"/>
<path d="M189.389 85.153C189.389 85.153 189.123 84.8685 188.738 84.5923C188.425 84.3683 188.031 84.2874 187.656 84.3765L172.569 87.9674L177.586 88.5641L189.389 85.153Z" fill="#404040"/>
<path d="M156.727 94.3902C156.727 94.3902 158.117 101.74 164.579 100.784C169.863 100.002 171.076 95.4765 169.807 91.9363C169.807 91.9363 168.961 90.1576 162.898 91.5235C156.835 92.8894 156.727 94.3902 156.727 94.3902Z" fill="#D7F3FF"/>
<path d="M188.293 87.0332C188.293 87.0332 189.32 94.9335 183.313 96.3632C178.333 97.5484 175.296 94.6303 174.854 90.8922C174.854 90.8922 174.829 88.9182 181.163 87.3332C187.497 85.7474 188.293 87.0332 188.293 87.0332Z" fill="#D7F3FF"/>
<path d="M180.421 87.0145C180.421 87.0145 178.387 86.7701 177.696 86.7513" stroke="#222221" stroke-width="0.439147" stroke-miterlimit="10"/>
<path opacity="0.7" d="M157.826 93.3002L156.997 94.2623L165.532 100.608C166.256 100.421 166.887 100.154 167.433 99.8256L158.092 93.1465C157.997 93.1989 157.909 93.2495 157.826 93.3002Z" fill="white"/>
<path opacity="0.7" d="M158.784 92.8073L167.852 99.5485C168.165 99.3229 168.446 99.0752 168.695 98.8079L159.796 92.4076C159.414 92.5433 159.077 92.6773 158.784 92.8073Z" fill="white"/>
<path opacity="0.7" d="M174.143 89.6549L183.211 96.397C183.481 96.3324 184.287 96.052 184.287 96.052L175.155 89.256C174.773 89.3917 174.436 89.525 174.143 89.6549Z" fill="white"/>
<path d="M156.904 95.6301L156.747 95.6677C156.63 95.6955 156.509 95.6456 156.445 95.5426C156.221 95.1797 155.641 94.3663 154.911 94.3198C154.792 94.3124 154.696 94.2208 154.668 94.1048L154.442 93.1574C154.407 93.0102 154.495 92.8623 154.642 92.8239C156.228 92.4086 164.533 90.2613 167.23 90.1403C167.245 90.1395 167.259 90.1403 167.273 90.142C167.484 90.1648 169.171 90.3398 169.816 90.1501C169.816 90.1501 172.978 89.3237 173.721 89.3229C173.756 89.3229 173.789 89.318 173.821 89.3057C174.574 89.0164 184.018 85.41 189.1 84.9407C189.238 84.9277 189.362 85.02 189.395 85.1541L189.604 86.0345C189.62 86.1015 189.61 86.171 189.578 86.2314C189.418 86.5249 188.942 87.4518 188.943 88.0477C188.944 88.1793 188.858 88.2954 188.73 88.3257L188.146 88.4654C188.021 88.4949 187.892 88.4376 187.835 88.3232C187.563 87.778 186.314 86.4023 180.833 87.9938C175.705 89.4823 175.279 90.7436 175.359 91.2495C175.381 91.3918 175.288 91.5258 175.148 91.5593L174.782 91.646C174.666 91.6738 174.543 91.6256 174.48 91.5226C174.254 91.1498 173.573 90.334 172.073 90.661C170.568 90.9888 170.317 92.0686 170.278 92.5198C170.268 92.64 170.183 92.7413 170.065 92.7691L169.646 92.8688C169.544 92.8934 169.436 92.8599 169.37 92.7789C168.996 92.3253 167.379 90.9389 162.273 92.2174C157.372 93.4443 157.03 94.784 157.12 95.3186C157.144 95.4617 157.046 95.5965 156.904 95.6301Z" fill="#404040"/>
<path d="M154.739 92.7989C156.324 92.3837 164.63 90.2363 167.327 90.1154C167.342 90.1145 167.356 90.1154 167.371 90.117C167.581 90.1399 169.268 90.3148 169.914 90.1252C169.914 90.1252 173.075 89.2988 173.818 89.2979C173.853 89.2979 173.887 89.293 173.919 89.2808C174.672 88.9906 184.115 85.385 189.198 84.915" stroke="#222221" stroke-width="0.439147" stroke-miterlimit="10"/>
<path d="M70.6733 191.454C70.6733 191.454 67.9593 192.878 66.8107 189.855C64.8774 184.767 55.6695 155.298 47.154 143.953C38.6389 132.608 34.0187 128.669 35.1368 122.783C36.255 116.897 38.5434 103.587 37.9067 83.945C37.3253 66.0086 37.4039 59.0394 37.4039 59.0394L89.3695 48.0609L107.663 124.898L119.972 176.6C119.972 176.6 120.696 179.64 118.09 180.245L70.6733 191.454Z" fill="#F5F5F5"/>
<path d="M84.1816 89.8123C84.1816 89.8123 89.9448 94.3415 99.5982 91.0703L108.236 127.353C107.919 138.281 95.8992 142.295 95.8992 142.295L84.1816 89.8123Z" fill="#D6D7D6"/>
<path d="M77.9043 60.1733C77.9043 60.1733 98.2175 154.903 105.841 183.163" stroke="#B8B8B8" stroke-width="0.439147" stroke-miterlimit="10"/>
<path d="M85.5537 95.25C85.5537 95.25 94.4878 98.608 100.45 94.6451" stroke="#B8B8B8" stroke-width="0.439147" stroke-miterlimit="10"/>
<path d="M37.3896 65.9928C37.3896 65.9928 37.6887 39.4553 37.7186 36.8016C37.7382 35.0601 39.144 35.1387 40.108 35.3984C41.0906 35.6632 42.083 35.8868 43.0909 36.028C45.7959 36.407 50.4399 36.9917 52.831 36.9094C55.9431 36.8024 63.5864 37.0321 82.1134 31.699C82.1134 31.699 84.9541 30.0729 85.9719 33.7895C87.0256 37.6419 87.7122 40.0063 90.0886 51.0662L92.6154 61.7129C92.6154 61.7129 82.4053 64.408 71.1218 59.8158C59.8383 55.2235 47.9818 59.8985 47.9818 59.8985C47.9818 59.8985 41.2066 62.5699 37.3896 65.9928Z" fill="#D6D7D6"/>
<path d="M84.1816 89.8123C84.1816 89.8123 90.0486 94.2614 99.5982 91.0703" stroke="#B8B8B8" stroke-width="0.439147" stroke-miterlimit="10"/>
<path d="M37.3896 59.0435C37.3896 59.0435 45.1775 54.9677 53.2181 53.4598C61.4475 51.9165 72.7931 55.6331 77.2957 57.1728C84.299 59.5678 91.5613 56.9227 91.5613 56.9227" stroke="#B8B8B8" stroke-width="0.439147" stroke-miterlimit="10"/>
<path d="M95.8936 142.295C95.8936 142.295 107.363 138.492 108.23 127.352" stroke="#B8B8B8" stroke-width="0.439147" stroke-miterlimit="10"/>
<path d="M159.118 116.917C159.118 116.917 170.808 109.303 182.343 109.187C193.878 109.071 198.292 111.515 200.64 114.416C203.821 118.343 207.623 124.495 199.4 130.548C192.998 135.26 180.082 138.439 180.082 138.439L159.118 116.917Z" fill="#EFF9F7"/>
<path d="M125.255 144.959C125.255 144.959 121.624 134.935 135.213 128.476C148.801 122.017 160.443 116.266 160.443 116.266C160.443 116.266 191.868 102.742 200.936 118.474C208.744 132.02 172.22 141.238 161.924 143.539C159.883 143.994 157.868 144.556 155.884 145.215C151.871 146.55 147.142 148.249 142.329 150.163C137.679 152.012 129.257 154.435 125.255 144.959Z" fill="#B8B8B8"/>
<path d="M161.539 122.635C161.539 122.635 136.107 130.153 130.59 135.423C125.074 140.692 125.841 143.464 126.971 145.619C128.167 147.9 132.47 151.172 140.077 148.828C147.685 146.484 165.96 138.737 167.421 138.912L159.305 140.307C149.786 138.333 153.872 126.54 153.872 126.54C153.872 126.54 155.718 125.511 161.539 122.635Z" fill="#EFF9F7"/>
<path d="M129.374 146.968C127.65 145.47 126.722 143.203 127.628 141.107C128.443 139.219 131.025 136.002 135.375 133.744C144.609 128.952 153.873 126.54 153.873 126.54C153.873 126.54 153.67 129.387 154.992 130.17C156.315 130.952 156.788 135.999 156.788 135.999C156.788 135.999 157.573 140.301 159.307 140.307C159.307 140.307 141.412 148.4 135.287 148.327C132.97 148.299 130.439 147.892 129.374 146.968Z" fill="#7D7D7D"/>
<path d="M175.753 170.328C175.753 170.328 189.682 169.539 199.045 162.802C208.408 156.064 210.516 151.48 210.691 147.752C210.927 142.704 210.346 135.496 200.136 135.488C192.186 135.483 179.932 140.561 179.932 140.561L175.753 170.328Z" fill="#EFF9F7"/>
<path d="M131.855 167.792C131.855 167.792 134.868 178.018 149.642 175.175C164.416 172.331 177.203 170.07 177.203 170.07C177.203 170.07 210.534 162.356 208.521 144.31C206.789 128.771 171.9 142.974 162.242 147.219C160.328 148.061 158.372 148.801 156.383 149.445C152.358 150.746 147.541 152.178 142.53 153.487C137.688 154.75 129.468 157.786 131.855 167.792Z" fill="#B8B8B8"/>
<path d="M174.313 164.289C174.313 164.289 149.368 173.294 141.802 172.315C134.236 171.336 133.212 168.648 132.846 166.243C132.459 163.696 133.987 158.512 141.505 155.894C149.023 153.278 168.337 148.696 169.411 147.69L162.044 151.373C155.544 158.601 165.822 165.684 165.822 165.684C165.822 165.684 167.919 165.42 174.313 164.289Z" fill="#EFF9F7"/>
<path d="M133.979 163.736C133.477 165.962 134.072 168.339 136.043 169.492C137.818 170.53 141.804 171.593 146.647 170.835C156.925 169.228 165.819 165.684 165.819 165.684C165.819 165.684 163.967 163.511 164.57 162.097C165.172 160.683 162.565 156.336 162.565 156.336C162.565 156.336 160.649 152.406 162.041 151.374C162.041 151.374 142.831 155.452 137.938 159.139C136.088 160.532 134.289 162.36 133.979 163.736Z" fill="#7D7D7D"/>
<path d="M136.314 67.8391L142.943 66.3614C144.525 66.0087 146.093 67.0053 146.446 68.5873L149.919 84.1621C150.272 85.7442 149.275 87.3126 147.693 87.6654L140.202 89.3355" stroke="#F5F5F5" stroke-width="3.51318" stroke-miterlimit="10"/>
<path d="M111.648 67.4091L118.203 96.8043C118.338 97.4119 118.637 97.9685 119.07 98.4158C119.916 99.2899 121.322 100.904 121.623 102.257L126.153 122.57C126.383 123.602 131.094 123.43 136.675 122.186C142.256 120.942 146.593 119.097 146.363 118.064L141.834 97.7512C141.532 96.3983 142.119 94.3399 142.513 93.1893C142.715 92.6004 142.75 91.9696 142.614 91.3619L136.06 61.9667L111.648 67.4091Z" fill="#F5F5F5"/>
<path d="M124.081 65.6718C130.822 64.1689 136.189 62.5097 136.068 61.9659C135.946 61.4221 130.383 62.1995 123.642 63.7024C116.901 65.2052 111.535 66.8644 111.656 67.4082C111.777 67.9521 117.34 67.1747 124.081 65.6718Z" fill="#D4F2F2"/>
<path d="M135.688 60.3059L111.276 65.7483L111.647 67.4093L136.058 61.967L135.688 60.3059Z" fill="#B8B8B8"/>
<path d="M136.06 61.9667C136.181 62.5106 130.815 64.1698 124.074 65.6726C117.333 67.1755 111.77 67.9529 111.648 67.4091" fill="#B8B8B8"/>
<path d="M135.688 60.306C135.567 59.7622 130.004 60.5396 123.263 62.0425C116.522 63.5454 111.155 65.2046 111.276 65.7484C111.363 66.1361 114.217 65.8518 118.291 65.1122C118.293 65.1289 118.293 65.1455 118.297 65.1623L118.297 65.1644C118.379 65.5314 118.743 65.7625 119.11 65.6807L123.936 64.6047C124.286 64.5265 124.51 64.1909 124.458 63.8412C130.839 62.3854 135.805 60.8294 135.688 60.306Z" fill="#D6D7D6"/>
<path d="M137.257 65.9219L137.976 69.1481" stroke="#D6D7D6" stroke-width="0.439147" stroke-miterlimit="10"/>
<path d="M142.009 87.2513L142.722 90.4452" stroke="#D6D7D6" stroke-width="0.439147" stroke-miterlimit="10"/>
</g>
<defs>
<clipPath id="clip0_1751_64148">
<rect width="245.333" height="202" rx="5" fill="white"/>
</clipPath>
</defs>
</svg>
