<svg width="246" height="202" viewBox="0 0 246 202" fill="none" xmlns="http://www.w3.org/2000/svg">
<g clip-path="url(#clip0_1751_64164)">
<rect x="-41.666" width="330" height="202" rx="5" fill="#0D756E"/>
<path d="M179.956 50.6046C181.095 47.7974 185.273 48.6284 185.251 51.6577C185.233 54.1253 188.224 55.3643 189.956 53.6068C192.083 51.4493 195.624 53.8156 194.445 56.606C193.484 58.8789 195.773 61.1682 198.046 60.2075C200.837 59.0279 203.203 62.5695 201.046 64.6961C199.288 66.4283 200.527 69.4194 202.995 69.4016C206.024 69.3797 206.855 73.5573 204.048 74.6964C201.761 75.6242 201.761 78.8617 204.048 79.7895C206.855 80.9286 206.024 85.1062 202.995 85.0843C200.527 85.0664 199.288 88.0575 201.046 89.7897C203.203 91.9163 200.837 95.4579 198.046 94.2784C195.773 93.3176 193.484 95.6069 194.445 97.8798C195.624 100.67 192.083 103.037 189.956 100.879C188.224 99.1216 185.233 100.361 185.251 102.828C185.273 105.857 181.095 106.688 179.956 103.881C179.028 101.595 175.791 101.595 174.863 103.881C173.724 106.688 169.546 105.857 169.568 102.828C169.586 100.361 166.595 99.1216 164.863 100.879C162.736 103.037 159.195 100.67 160.374 97.8798C161.335 95.6069 159.046 93.3176 156.773 94.2784C153.982 95.4579 151.616 91.9163 153.773 89.7897C155.531 88.0575 154.292 85.0664 151.824 85.0843C148.795 85.1061 147.964 80.9286 150.771 79.7895C153.058 78.8617 153.058 75.6242 150.771 74.6964C147.964 73.5573 148.795 69.3797 151.824 69.4016C154.292 69.4194 155.531 66.4284 153.773 64.6961C151.616 62.5695 153.982 59.0279 156.773 60.2075C159.046 61.1682 161.335 58.879 160.374 56.6061C159.195 53.8157 162.736 51.4493 164.863 53.6068C166.595 55.3642 169.586 54.1253 169.568 51.6578C169.546 48.6284 173.724 47.7974 174.863 50.6046C175.791 52.8911 179.028 52.8911 179.956 50.6046Z" fill="white"/>
<path d="M172.089 155.491H193.314V134.266H172.089V155.491Z" fill="#94E0DE"/>
<path d="M118.332 134.108H120.089V134.09H118.332V134.108Z" fill="#94E0DE"/>
<path d="M125.929 161.476L125.466 161.457C126.128 159.185 125.953 143.642 125.954 143.45C125.973 143.153 127.792 115.092 126.608 109.441C125.377 103.57 124.619 98.7836 123.824 93.5759C122.993 88.1156 123.798 85.4253 123.832 85.3134L124.281 85.4519C124.273 85.4793 123.474 88.1656 124.288 93.5063C125.082 98.7054 125.839 103.486 127.067 109.345C128.265 115.058 126.498 142.309 126.422 143.466C126.418 144.239 126.608 159.142 125.929 161.476Z" fill="#94E0DE"/>
<path d="M162.561 159.332C162.464 159.308 152.695 157.014 147.673 156.648L147.708 156.181C152.766 156.549 162.571 158.852 162.694 158.883C162.759 158.905 169.206 161.15 171.501 160.011L171.71 160.43C171.181 160.694 170.469 160.798 169.675 160.798C166.767 160.798 162.756 159.4 162.561 159.332Z" fill="#94E0DE"/>
<path d="M113.35 85.1919C113.35 85.1919 116.505 61.6675 116.96 58.4114C117.388 55.3453 118.156 52.7665 118.156 52.7665C118.156 52.7665 119.557 50.9029 120.794 49.8128C122.021 48.7306 123.055 48.2045 123.055 48.2045C123.055 48.2045 122.342 50.0097 121.817 53.7877C121.291 57.5657 117.388 86.0454 117.388 86.0454L113.35 85.1919Z" fill="#94E0DE"/>
<path d="M66.9424 81.707C66.9424 81.707 72.8025 79.5242 75.0774 70.6252C77.3523 61.7263 77.1841 52.2397 77.1841 52.2397L106.538 62.6053C106.538 62.6053 100.523 75.1587 102.37 78.4329C104.217 81.707 106.538 82.2946 106.538 82.2946C106.538 82.2946 105.321 97.8126 88.0978 97.8259C70.0481 97.8399 66.9424 81.707 66.9424 81.707Z" fill="#F4DFCC"/>
<path d="M76.1768 65.2559C76.9262 57.6458 77.1843 52.2397 77.1843 52.2397L106.538 62.6053C106.538 62.6053 105.021 65.153 103.329 70.5418C103.329 70.5418 97.1037 78.0489 87.879 75.2875C79.5273 72.7872 76.1768 65.2559 76.1768 65.2559Z" fill="#E7C09F"/>
<path d="M81.7493 31.3889C81.7493 31.3889 77.9849 40.9375 77.3419 45.4364C76.6996 49.9352 75.7812 57.5557 79.5456 62.8808C83.31 68.206 87.9004 70.9604 89.7372 71.1441C91.5733 71.3277 99.9281 71.7867 106.538 62.6054C110.425 57.2078 112.598 50.4456 113.728 45.7889C114.877 41.0588 114.95 36.1043 113.665 31.4095C112.217 26.118 108.946 20.2451 101.581 19.2696C87.7174 17.4333 81.7493 31.3889 81.7493 31.3889Z" fill="#F4DFCC"/>
<path d="M85.6719 39.8878C88.7283 38.7798 92.387 39.9631 93.7271 43.0205L93.5284 43.125C92.1031 40.356 88.7455 39.4308 85.9629 40.608L85.6719 39.8878Z" fill="#A7754A"/>
<path d="M108.496 46.7588C106.966 44.6093 103.97 42.9166 101.638 44.9378L101.492 44.7676C103.177 43.1032 105.753 43.3877 107.506 44.8009C108.096 45.236 108.627 45.7132 109.116 46.2903L108.496 46.7588Z" fill="#A7754A"/>
<path d="M91.6523 41.1707C91.3136 41.9842 90.3795 42.369 89.566 42.0302C88.7524 41.6915 88.3268 40.7391 88.707 39.944C88.8244 39.6982 89.1412 39.642 89.9547 39.9807C90.7683 40.3195 91.991 40.3573 91.6523 41.1707Z" fill="#A7754A"/>
<path d="M105.914 44.6698C105.745 45.4599 104.969 45.9638 104.178 45.7952C103.388 45.6266 102.844 44.8398 103.053 44.0593C103.117 43.8179 103.394 43.714 104.184 43.8826C104.974 44.0511 106.083 43.8797 105.914 44.6698Z" fill="#A7754A"/>
<path d="M102.223 40.4823C102.223 40.4823 98.7212 43.1176 98.4849 49.9003C98.4614 50.5769 98.4888 51.2578 98.5608 51.9309C98.6601 52.8539 98.646 54.7566 96.7725 54.4244" stroke="#A7754A" stroke-width="0.434911" stroke-miterlimit="10"/>
<path d="M91.0761 50.087C91.0761 50.087 89.3856 51.7587 91.7098 52.6957" stroke="#A7754A" stroke-width="0.434911" stroke-miterlimit="10"/>
<path d="M85.8174 55.2883C89.8556 57.5607 93.875 58.6192 98.28 59.7686C98.9324 59.9411 99.6005 60.1099 100.305 60.4043C99.0514 61.1587 97.6511 61.5826 96.1999 61.7112C91.9591 62.1203 86.7819 59.7665 85.8174 55.2883Z" fill="white"/>
<path d="M89.7217 64.3676C89.7217 64.3676 91.0821 65.8574 93.0605 65.3807" stroke="#A7754A" stroke-width="0.434911" stroke-miterlimit="10"/>
<path d="M85.7939 35.0431C88.6579 33.9653 93.4823 34.366 94.8505 37.5535C94.8505 37.5537 94.7519 37.6746 94.7519 37.6746C93.142 37.4037 91.8222 36.6427 90.4071 35.9231C88.9692 35.3713 87.3992 35.0432 85.8401 35.1926L85.7939 35.0431Z" fill="#A7754A"/>
<path d="M111.8 43.5479C110.865 42.256 109.449 41.4003 107.964 40.9397C106.821 40.6916 105.684 40.6666 104.558 40.2842C104.163 40.1892 103.758 40.0806 103.327 39.8791L103.311 39.7234C105.704 38.1658 108.738 39.485 110.563 41.3173C111.158 41.957 111.665 42.6688 111.943 43.4835L111.8 43.5479Z" fill="#A7754A"/>
<path d="M59.5256 130.85C59.5256 130.85 40.3187 135.958 34.9013 133.946C34.9013 133.946 32.7342 110.722 36.1395 101.67C39.5448 92.6182 46.0458 89.058 48.3676 88.1294C50.6894 87.2001 66.4214 82.5019 68.4867 81.0486C68.4867 81.0486 70.4001 96.3419 89.272 95.8686C89.272 95.8686 101.275 96.3419 105.185 82.2473C105.185 82.2473 125.605 83.8894 128.547 83.7651C131.487 83.6407 140.775 85.6973 144.18 97.8259C144.18 97.8259 147.276 109.423 147.74 111.623C147.74 111.623 138.429 118.089 131.618 116.386C131.618 116.386 130.176 171.385 132.894 173.862H65.1901C65.1901 173.862 66.5935 149.578 62.6078 141.84C58.622 134.101 59.5256 130.85 59.5256 130.85Z" fill="#83D0D2"/>
<path d="M95.932 116.374L78.2554 117.688L70.5557 133.654L80.5323 148.305L98.2089 146.99L88.2321 132.339L95.932 116.374Z" fill="#0D756E"/>
<path d="M113.608 115.059L95.9316 116.374L105.908 131.025L98.2086 146.99L115.885 145.676L123.585 129.71L113.608 115.059Z" fill="#082E2B"/>
<path d="M95.9323 116.374L88.2324 132.339L98.2092 146.99L105.909 131.025L95.9323 116.374Z" fill="#83D0D2"/>
<path d="M53.3711 86.4568C53.3711 86.4568 59.3861 94.0435 57.9514 107.541C56.2523 123.513 59.5254 130.85 59.5254 130.85" stroke="#44A0A0" stroke-width="0.652366" stroke-miterlimit="10"/>
<path d="M66.9424 81.7069C66.9424 81.7069 70.2569 98.0934 88.0978 97.8259C105.939 97.5583 105.185 81.0486 105.185 81.0486" stroke="#44A0A0" stroke-width="0.652366" stroke-miterlimit="10"/>
<path d="M34.7168 131.637C34.7168 131.637 46.5361 131.808 58.5601 127.646" stroke="#44A0A0" stroke-width="0.652366" stroke-miterlimit="10"/>
<path d="M100.305 22.9531C100.305 22.9531 106.41 22.5078 108.192 31.5242C109.973 40.5406 107.406 46.9758 112.251 50.9379C112.251 50.9379 109.37 60.5476 101.371 67.8335C101.371 67.8335 100.517 69.9587 100.77 72.6907C101.164 76.9281 100.111 80.7773 99.5591 82.4371C99.1516 83.6625 98.9411 84.9532 99.0475 86.2401C99.186 87.9205 99.8118 89.9865 101.768 91.4939C105.655 94.4878 107.125 100.318 106.863 103.049L132.639 99.0571C132.639 99.0571 131.024 93.3847 128.082 91.9665C125.141 90.5489 120.677 86.2941 123.145 81.8297C125.614 77.3653 130.026 74.424 128.923 66.8081C127.82 59.1923 124.283 52.6956 124.511 45.1576C124.693 39.122 122.59 25.3414 113.41 18.3511C104.231 11.3609 99.0146 13.9841 99.0146 13.9841C99.0146 13.9841 101.994 20.6034 100.305 22.9531Z" fill="#591300"/>
<path d="M110.811 47.7302C112.459 52.3798 117.698 52.5043 121.717 51.1165C117.498 52.873 112.067 52.8269 110.063 47.9572C110.063 47.9572 110.811 47.7302 110.811 47.7302Z" fill="#230700"/>
<path d="M99.0145 13.9842C99.0145 13.9842 91.6704 11.1384 85.4911 14.37C79.311 17.6015 77.8035 22.1937 76.1764 24.1213C74.5492 26.0489 70.5236 30.9812 69.1632 32.512C67.8028 34.0427 63.1536 40.5058 64.9678 46.9689C66.7819 53.432 68.0461 57.2551 68.2722 58.2756C68.499 59.2961 71.0399 69.8 64.9787 73.4648C60.0206 76.4628 59.5254 84.6701 59.5254 84.6701C59.5254 84.6701 68.7932 82.2714 71.7846 78.318C74.5218 74.7007 76.9743 66.6992 77.0533 62.0599C77.1316 57.4207 76.2515 43.8656 77.4085 43.947C79.3 44.0802 79.7084 34.8931 81.8628 33.4191C84.0172 31.9451 87.9858 30.8679 89.2328 28.997C90.4797 27.1261 95.1054 21.6717 100.304 22.9532C105.504 24.2347 99.0145 13.9842 99.0145 13.9842Z" fill="#591300"/>
<path d="M72.2393 67.3151C74.0104 61.6758 74.7238 55.4789 73.0419 49.7485L73.7929 49.5312C75.2573 55.4247 74.2818 61.6896 72.2393 67.3151Z" fill="#230700"/>
<path d="M77.2681 40.5985C77.2681 40.5985 76.7573 35.7705 73.6031 36.4199C71.1108 36.933 72.7966 40.5985 72.7966 42.8711C72.7966 45.1437 72.1371 50.4952 73.9692 50.8618C75.8021 51.2284 76.6087 50.202 77.2681 49.249C77.9284 48.296 77.9159 44.5729 77.2681 40.5985Z" fill="#F4DFCC"/>
<path d="M73.8281 40.3453C73.8281 40.3453 75.3168 38.7194 75.611 41.0879C75.9051 43.4564 73.9236 46.0345 74.4414 47.4284C74.9601 48.8224 76.0936 47.5909 76.0936 47.5909" stroke="#A7754A" stroke-width="0.434911" stroke-miterlimit="10"/>
<path d="M114.609 66.4125C108.241 74.7884 107.279 84.7085 114.689 92.7785C116.656 95.1872 119.753 97.6592 119.34 101.117C119.393 97.6553 116.323 95.5384 114.247 93.172C106.43 85.2381 107.3 74.3445 114.609 66.4125Z" fill="#230700"/>
<path d="M111.055 53.3718C113.895 54.8849 115.213 58.3185 114.011 61.3873C112.717 64.6941 108.986 66.3252 105.679 65.0305C105.51 64.9642 105.345 64.8916 105.186 64.813" stroke="#F4D0A2" stroke-width="0.652366" stroke-miterlimit="10"/>
<path d="M74.5658 49.6587C75.88 49.6399 76.1773 52.8019 76.0733 56.0959C75.9606 59.6454 75.0015 62.4952 73.9313 62.4612C73.8766 62.4595 73.8265 62.4642 73.7061 62.4333" stroke="#F4D0A2" stroke-width="0.652366" stroke-miterlimit="10"/>
<path d="M104.559 154.095L94.3349 154.981L89.6865 125.84L99.0145 123.403L104.559 154.095Z" fill="#CC753B"/>
<path d="M104.559 154.095L99.4346 127.385L163.391 115.302L168.245 141.5L104.559 154.095Z" fill="#DE9E66"/>
<path d="M98.2754 102.202L162.908 91.1396L167.01 116.495L102.998 128.179L98.2754 102.202Z" fill="#DE9E66"/>
<path d="M99.4346 129.289L163.802 117.516" stroke="#CC753B" stroke-width="0.434911" stroke-miterlimit="10"/>
<path d="M88.7393 106.055L98.2753 102.202L103.079 128.622L92.653 130.887L88.7393 106.055Z" fill="#CC753B"/>
<path d="M38.0996 134.411C38.0996 134.411 39.0306 139.041 40.7727 148.187C40.7727 148.187 43.2787 161.188 43.2787 162.64C43.2787 164.092 45.9411 172.487 50.1512 173.067C54.361 173.647 56.9512 170.454 58.5596 169.873C60.168 169.293 74.9759 162.702 82.8152 153.73C88.3679 147.375 91.1951 146.104 92.3716 145.904C93.0874 145.782 93.7852 145.574 94.4032 145.193C95.9248 144.255 98.3444 142.396 99.4975 139.532C101.252 135.177 97.9087 136.147 97.9087 136.147C97.9087 136.147 94.0144 140.246 93.6155 139.209C93.6155 139.209 94.6011 135.791 97.106 133.902C100.679 131.206 101.929 128.665 100.007 128.392C100.007 128.392 99.3348 127.772 96.215 129.642C93.0952 131.512 92.2926 132.225 91.5799 132.493C91.5799 132.493 100.047 124.738 98.1754 123.134H97.106C97.106 123.134 98.6213 121.172 96.215 120.994C96.215 120.994 91.8475 121.708 90.599 122.42C90.599 122.42 91.0957 120.638 90.9815 119.212C90.9815 119.212 93.9863 118.766 93.7187 116.181C93.7187 116.181 93.7187 114.844 90.243 115.468C86.7665 116.092 87.16 117.429 86.7407 118.142C86.3206 118.855 85.1621 124.381 85.1621 125.095C85.1621 125.095 83.1125 125.82 83.3792 130.85C83.6468 135.879 81.5972 135.969 81.5972 135.969C81.5972 135.969 76.9621 139.445 73.7532 142.03C70.5442 144.615 64.0966 149.874 60.0561 149.695C60.0561 149.695 61.7685 134.864 59.823 130.716C59.823 130.716 47.101 134.117 38.0996 134.411Z" fill="#F4DFCC"/>
<path d="M51.4883 154.98C51.4883 154.98 54.5689 151.14 57.1927 150.335C59.8165 149.531 60.0559 149.695 60.0559 149.695" stroke="#A7754A" stroke-width="0.434911" stroke-miterlimit="10"/>
<path d="M83.0928 134.241C83.0928 134.241 83.0928 137.56 85.0946 139.209" stroke="#A7754A" stroke-width="0.434911" stroke-miterlimit="10"/>
<path d="M85.5068 131.638C85.5068 131.638 86.0372 129.138 87.8631 128.196C89.6882 127.254 97.1066 123.134 97.1066 123.134" stroke="#A7754A" stroke-width="0.434911" stroke-miterlimit="10"/>
<path d="M88.3926 119.362C88.3926 119.362 89.7991 119.665 90.9812 119.486" stroke="#A7754A" stroke-width="0.434911" stroke-miterlimit="10"/>
<path d="M85.1621 125.095C85.1621 125.095 85.2802 124.115 90.599 122.42" stroke="#A7754A" stroke-width="0.434911" stroke-miterlimit="10"/>
<path d="M91.5805 132.493C89.3956 133.195 88.7393 135.771 88.7393 135.771" stroke="#A7754A" stroke-width="0.434911" stroke-miterlimit="10"/>
<path d="M93.6152 139.209C93.6152 139.209 93.9837 137.291 95.0554 136.326" stroke="#A7754A" stroke-width="0.434911" stroke-miterlimit="10"/>
<path d="M120.488 98.4032L122.546 108.471L138.068 105.622L135.905 95.7645L120.488 98.4032Z" fill="#E8B57D"/>
<path d="M124.276 124.954L125.99 133.295L141.512 130.446L139.652 122.13L124.276 124.954Z" fill="#E8B57D"/>
<path opacity="0.51" d="M124.276 124.745L139.661 121.931" stroke="#DE9E66" stroke-width="0.434911" stroke-miterlimit="10"/>
<path d="M30.6514 173.862H217.994H30.6514Z" fill="#0E3C51"/>
<path d="M30.6514 173.862H217.994" stroke="#0E3C51" stroke-width="0.652366" stroke-miterlimit="10"/>
<path d="M132.487 186.659L95.7911 177.999C94.2922 177.685 93.2197 176.364 93.2197 174.833L134.816 182.622L132.487 186.659Z" fill="#B7B7B7"/>
<path d="M93.2197 174.833L188.68 169.181L214.222 177.614L132.896 182.262L93.2197 174.833Z" fill="#D5D6D5"/>
<path d="M139.194 118.765L131.207 185.325C131.117 186.074 131.735 186.718 132.488 186.66L216.048 180.117C217.545 180 218.759 178.856 218.966 177.369L227.413 116.556C227.566 115.454 226.691 114.479 225.579 114.509L141.3 116.87C140.223 116.885 139.323 117.695 139.194 118.765Z" fill="#B7B7B7"/>
<path d="M187.049 148.308C187.861 144.516 186.411 140.992 183.811 140.435C181.212 139.878 178.447 142.501 177.635 146.291C176.823 150.081 178.272 153.606 180.871 154.163C183.471 154.719 186.237 152.098 187.049 148.308Z" fill="#D5D6D5"/>
<path d="M131.157 182.175L130.977 183.682C130.845 184.776 131.247 185.549 132.057 186.296L132.085 186.613" stroke="#989898" stroke-width="0.434911" stroke-miterlimit="10"/>
<path d="M160.207 80.059V78.2025H164.332V80.059H160.207Z" fill="#0F4C6D"/>
<path d="M168.336 83.2902V74.9712L166.428 76.9134L165.036 75.4524L168.645 71.8257H170.777V83.2902L168.336 83.2902Z" fill="#0F4C6D"/>
<path d="M172.494 77.5667C172.494 74.6103 173.955 71.6542 177.238 71.6542C180.52 71.6542 181.981 74.6103 181.981 77.5667C181.981 80.5232 180.52 83.4966 177.238 83.4966C173.955 83.4966 172.494 80.5232 172.494 77.5667ZM179.489 77.5667C179.489 75.4525 178.888 73.8199 177.238 73.8199C175.605 73.8199 174.986 75.4525 174.986 77.5667C174.986 79.681 175.605 81.331 177.238 81.331C178.871 81.331 179.489 79.681 179.489 77.5667Z" fill="#0F4C6D"/>
<path d="M183.011 74.5245C183.011 72.9089 184.163 71.6542 185.916 71.6542C187.686 71.6542 188.838 72.9089 188.838 74.5245C188.838 76.1231 187.686 77.3603 185.916 77.3603C184.163 77.3603 183.011 76.1231 183.011 74.5245ZM187.29 74.5245C187.29 73.5791 186.706 72.9946 185.916 72.9946C185.142 72.9946 184.558 73.5791 184.558 74.5245C184.558 75.4355 185.142 76.0199 185.916 76.0199C186.706 76.0199 187.29 75.4355 187.29 74.5245ZM184.798 83.2902L192.12 71.8258H193.427L186.087 83.2902H184.798ZM189.319 80.6604C189.319 79.0448 190.471 77.7731 192.224 77.7731C193.977 77.7731 195.146 79.0447 195.146 80.6604C195.146 82.259 193.977 83.4966 192.224 83.4966C190.47 83.4966 189.319 82.259 189.319 80.6604ZM193.598 80.6604C193.598 79.7154 193.015 79.131 192.224 79.131C191.433 79.131 190.865 79.7154 190.865 80.6604C190.865 81.5888 191.433 82.1558 192.224 82.1558C193.015 82.1558 193.598 81.5888 193.598 80.6604Z" fill="#0F4C6D"/>
</g>
<defs>
<clipPath id="clip0_1751_64164">
<rect x="0.666992" width="245.333" height="202" rx="5" fill="white"/>
</clipPath>
</defs>
</svg>
