<svg width="246" height="202" viewBox="0 0 246 202" fill="none" xmlns="http://www.w3.org/2000/svg">
<g clip-path="url(#clip0_1751_64156)">
<rect x="-42" width="330" height="202" rx="5" fill="#0D756E"/>
<path d="M32.4745 20.5681H214.379C215.245 20.5681 216.075 20.912 216.688 21.5243C217.3 22.1365 217.644 22.9669 217.644 23.8328V178.902C217.644 179.33 217.56 179.755 217.395 180.151C217.232 180.547 216.991 180.907 216.688 181.21C216.385 181.513 216.025 181.754 215.629 181.917C215.233 182.082 214.808 182.166 214.379 182.166H32.4745C32.0459 182.166 31.6213 182.082 31.2252 181.917C30.8292 181.754 30.4693 181.513 30.1661 181.21C29.863 180.907 29.6225 180.547 29.4585 180.151C29.2944 179.755 29.21 179.33 29.21 178.902V23.8327C29.21 22.9669 29.5539 22.1365 30.1661 21.5242C30.7783 20.9121 31.6087 20.5681 32.4745 20.5681Z" fill="white" stroke="#7CCDCD" stroke-width="0.732248" stroke-miterlimit="10"/>
<path d="M45.8605 36.1557C47.7213 36.1557 49.2299 34.6473 49.2299 32.7864C49.2299 30.9254 47.7213 29.4171 45.8605 29.4171C43.9997 29.4171 42.4912 30.9256 42.4912 32.7864C42.4912 34.6471 43.9997 36.1557 45.8605 36.1557Z" fill="#EE3F47"/>
<path d="M65.8878 36.1557C67.749 36.1557 69.257 34.6473 69.257 32.7864C69.257 30.9254 67.749 29.4171 65.8878 29.4171C64.0273 29.4171 62.5186 30.9256 62.5186 32.7864C62.5186 34.6471 64.0273 36.1557 65.8878 36.1557Z" fill="#0FB9B2"/>
<path d="M56.0733 36.1557C57.9345 36.1557 59.4425 34.6473 59.4425 32.7864C59.4425 30.9254 57.9345 29.4171 56.0733 29.4171C54.2128 29.4171 52.7041 30.9256 52.7041 32.7864C52.7041 34.6471 54.2128 36.1557 56.0733 36.1557Z" fill="#F2C994"/>
<path d="M144.703 29.4171H202.615C202.771 29.4171 202.927 29.4479 203.072 29.5079C203.217 29.5679 203.348 29.6558 203.459 29.7666C203.57 29.8774 203.657 30.009 203.718 30.1538C203.778 30.2986 203.808 30.4538 203.808 30.6105V33.301C203.808 33.6175 203.682 33.921 203.459 34.1448C203.235 34.3686 202.932 34.4944 202.615 34.4944H144.703C144.387 34.4944 144.083 34.3686 143.859 34.1448C143.636 33.921 143.51 33.6175 143.51 33.301V30.6105C143.51 30.4538 143.541 30.2986 143.6 30.1538C143.66 30.009 143.749 29.8775 143.859 29.7666C143.97 29.6558 144.102 29.5679 144.246 29.5079C144.392 29.4479 144.547 29.4171 144.703 29.4171Z" stroke="#7CCDCD" stroke-width="0.732248" stroke-miterlimit="10"/>
<path d="M29.21 43.6804H217.644" stroke="#7CCDCD" stroke-width="0.732248" stroke-miterlimit="10"/>
<path d="M44.7465 73.1781H69.398C70.004 73.1781 70.495 74.1905 70.495 75.4336V85.2543C70.495 86.4969 70.004 87.5021 69.398 87.5021H44.7465C44.1403 87.5021 43.6416 86.497 43.6416 85.2543V75.4336C43.6416 74.1905 44.1403 73.1781 44.7465 73.1781ZM46.0201 94.6606H67.2498C67.8467 94.6627 68.4179 94.9016 68.8393 95.3237C69.2607 95.7465 69.4976 96.3191 69.4976 96.916V106.737C69.4976 107.333 69.2607 107.905 68.8393 108.327C68.4172 108.748 67.846 108.985 67.2498 108.985H45.9204C45.6202 108.985 45.323 108.925 45.0464 108.809C44.7696 108.693 44.5189 108.522 44.3088 108.308C44.0988 108.094 43.9336 107.839 43.8229 107.561C43.7124 107.281 43.6585 106.983 43.6647 106.683L43.7644 96.9014C43.78 96.3107 44.0221 95.7486 44.4406 95.3314C44.859 94.9141 45.4218 94.6745 46.0124 94.6606H46.0201ZM75.2671 94.6606H96.4738C97.0707 94.6627 97.6426 94.9016 98.064 95.3237C98.4848 95.7465 98.7216 96.3191 98.7216 96.916V106.737C98.7216 107.333 98.4847 107.905 98.0633 108.327C97.6412 108.748 97.0693 108.985 96.4738 108.985H75.2671C74.6702 108.985 74.0976 108.748 73.6748 108.327C73.252 107.906 73.0138 107.334 73.0117 106.737V96.916C73.0117 96.3177 73.2492 95.7444 73.672 95.3216C74.0955 94.8981 74.6688 94.6606 75.2671 94.6606Z" fill="#F2F2F2"/>
<path d="M98.6066 87.4944V75.4105C98.6192 74.8898 98.4262 74.3854 98.0689 74.0066C97.6802 73.6467 97.1648 73.4537 96.6347 73.4695H72.4134C71.9042 73.47 71.4145 73.6619 71.0397 74.0066C70.8572 74.1899 70.7151 74.4096 70.6225 74.6518C70.5306 74.8934 70.4895 75.1519 70.5027 75.4105V85.5225C70.4929 86.0393 70.2805 86.5318 69.912 86.8947C69.5435 87.2576 69.0476 87.4617 68.5307 87.4638H43.6416" stroke="#7CCDCD" stroke-width="0.732248" stroke-miterlimit="10"/>
<path d="M45.8897 141.001H96.4738C97.0707 141 97.6426 140.761 98.064 140.338C98.4847 139.915 98.7216 139.343 98.7216 138.746V114.455C98.7216 113.858 98.4847 113.286 98.0633 112.866C97.6412 112.444 97.0693 112.207 96.4738 112.207H45.8897C45.2934 112.207 44.7217 112.444 44.3001 112.866C43.8785 113.286 43.6416 113.858 43.6416 114.455V138.746C43.6416 139.343 43.8782 139.915 44.2996 140.338C44.7209 140.761 45.2928 141 45.8897 141.001Z" fill="#F2F2F2"/>
<path d="M83.3229 80.0058L80.4385 80.4355L82.5254 82.4609L82.0419 85.3532L84.6122 83.9803L87.2132 85.3532L86.6991 82.4609L88.786 80.4355L85.9238 80.0058L84.6122 77.4122L83.3229 80.0058Z" fill="#222222"/>
<path d="M158.657 74.07C167.085 74.4652 172.145 68.198 172.36 62.9792C172.285 63.0301 172.213 63.1025 172.145 63.207C171.953 63.4997 171.663 63.7395 171.384 63.9646C169.297 65.6566 166.811 66.3473 164.228 66.7699C161.48 67.2187 158.715 67.2315 155.951 66.9461C153.442 66.6882 150.969 66.2367 148.621 65.2708C147.403 64.7705 146.225 64.1997 145.407 63.1012C145.407 66.9461 149.951 73.6627 158.657 74.07Z" fill="#44A0A0"/>
<path d="M188.294 69.3013C183.545 66.3157 177.733 64.2419 172.359 62.9792C169.876 76.7661 147.972 75.0727 145.406 63.1005C140.023 63.2532 134.16 66.6487 129.347 69.2591C122.945 72.4683 114.304 97.4844 114.984 98.4729C119.676 105.292 122.385 106.089 130.328 109.617C130.593 126.062 130.196 137.965 130.182 148.748C130.177 152.296 135.232 154.02 138.002 155.196C148.612 158.781 158.841 159.871 169.747 157.575C172.842 157.149 175.83 155.278 178.528 153.811C181.756 152.057 185.648 151.97 189.028 150.702C189.836 150.387 190.009 149.941 189.969 148.929C189.482 136.651 189.008 127.319 187.782 109.709C191.907 108.572 199.509 106.181 202.587 100.137C203.152 99.028 194.699 72.8555 188.294 69.3033L188.294 69.3013ZM140.436 148.747C140.453 148.808 140.458 148.875 140.472 148.937C140.459 148.874 140.45 148.809 140.436 148.747Z" fill="#83D0D2"/>
<path d="M143.147 63.2357C143.147 63.2357 144.148 74.6808 157.951 75.5429C171.754 76.405 174.613 63.5037 174.613 63.5037" stroke="#44A0A0" stroke-width="0.732248" stroke-miterlimit="10"/>
<path d="M192.881 75.1303C192.881 75.1303 190.615 93.8052 186.683 101.187" stroke="#44A0A0" stroke-width="0.732248" stroke-miterlimit="10"/>
<path d="M187.962 109.68C187.479 106.464 186.08 100.765 186.572 93.7338" stroke="#44A0A0" stroke-width="0.732248" stroke-miterlimit="10"/>
<path d="M124.746 74.9595C124.746 74.9595 127.521 93.972 131.469 101.353" stroke="#44A0A0" stroke-width="0.732248" stroke-miterlimit="10"/>
<path d="M130.259 109.603C130.797 106.555 132.002 100.618 131.835 91.632" stroke="#44A0A0" stroke-width="0.732248" stroke-miterlimit="10"/>
<path d="M174.244 119.378H172.905V118.61H173.475V117.266H174.244V119.378ZM170.222 119.378H167.539V118.61H170.222V119.378ZM164.856 119.378H162.173V118.61H164.856V119.378ZM159.49 119.378H156.808V118.61H159.49V119.378ZM154.125 119.378H151.442V118.61H154.125V119.378ZM148.759 119.378H146.076V118.61H148.759V119.378ZM143.868 118.903H143.1V116.22H143.868V118.903ZM174.244 114.583H173.475V111.9H174.244V114.583ZM143.868 113.538H143.1V110.856H143.868V113.538ZM174.244 109.217H173.475V106.535H174.244V109.217ZM143.868 108.172H143.1V105.489H143.868V108.172ZM174.244 103.852H173.475V101.169H174.244V103.852ZM143.868 102.807H143.1V100.124H143.868V102.807ZM174.244 98.486H173.475V95.8039H174.244V98.486ZM143.868 97.4405H143.1V94.7577H143.868V97.4405ZM174.244 93.1203H173.475V90.4374H174.244V93.1203ZM143.868 92.0748H143.1V89.3927H143.868V92.0748ZM172.995 89.003H170.313V88.2343H172.995V89.003ZM167.63 89.003H164.947V88.2343H167.63V89.003ZM162.264 89.003H159.581V88.2343H162.264V89.003ZM156.898 89.003H154.215V88.2343H156.898V89.003ZM151.533 89.003H148.85V88.2343H151.533V89.003ZM146.167 89.003H143.484V88.2343H146.167V89.003Z" fill="white"/>
<path d="M143.483 85.6974C141.869 85.6974 140.562 87.005 140.562 88.6178C140.562 90.2314 141.869 91.539 143.483 91.539C145.095 91.539 146.403 90.2314 146.403 88.6178C146.403 87.005 145.095 85.6974 143.483 85.6974Z" fill="white"/>
<path d="M176.78 88.6178C176.78 87.005 175.472 85.6974 173.859 85.6974C172.246 85.6974 170.938 87.005 170.938 88.6178C170.938 90.2314 172.246 91.539 173.859 91.539C175.472 91.539 176.78 90.2314 176.78 88.6178Z" fill="white"/>
<path d="M143.483 116.074C141.869 116.074 140.562 117.381 140.562 118.995C140.562 120.608 141.869 121.915 143.483 121.915C145.095 121.915 146.403 120.608 146.403 118.995C146.403 117.381 145.095 116.074 143.483 116.074Z" fill="white"/>
<path d="M176.78 118.995C176.78 117.381 175.472 116.074 173.859 116.074C172.246 116.074 170.938 117.381 170.938 118.995C170.938 120.608 172.246 121.915 173.859 121.915C175.472 121.915 176.78 120.608 176.78 118.995Z" fill="white"/>
<path d="M158.883 97.4574H151.552L147.887 103.806L151.552 110.155H158.883L155.218 103.806L158.883 97.4574Z" fill="#0D756E"/>
<path d="M166.215 97.4574H158.884L162.549 103.806L158.884 110.155H166.215L169.88 103.806L166.215 97.4574Z" fill="#082E2B"/>
</g>
<defs>
<clipPath id="clip0_1751_64156">
<rect x="0.333008" width="245.333" height="202" rx="5" fill="white"/>
</clipPath>
</defs>
</svg>
